<?xml version="1.0" encoding="utf-8"?>
<svg version="1.1" id="Layer_1"
xmlns="http://www.w3.org/2000/svg"
xmlns:xlink="http://www.w3.org/1999/xlink"
width="109px" height="109px"
xml:space="preserve">
<g id="PathID_113" transform="matrix(0.253357, 0, 0, 0.253357, 1.6, 103.7)" opacity="1">
<path style="fill:#FFFFFF;fill-opacity:1" d="M3.75 0L3.75 -35.75L19 -35.75Q29.2 -35.75 29.2 -27.4Q29.2 -21.3 22.55 -18.7Q29.65 -17.35 29.65 -10.55Q29.65 0 18.45 0L3.75 0M18.2 -3.75Q24.6 -3.75 24.6 -10.25Q24.6 -16.55 16 -16.55L14 -16.55L14 -19.6Q24.25 -20.95 24.25 -27Q24.25 -32 18.55 -32L8.35 -32L8.35 -3.75L18.2 -3.75" />
</g>
<g id="PathID_114" transform="matrix(0.253357, 0, 0, 0.253357, 1.6, 103.7)" opacity="1">
</g>
<g id="PathID_115" transform="matrix(0.253357, 0, 0, 0.253357, 9.85, 103.7)" opacity="1">
<path style="fill:#FFFFFF;fill-opacity:1" d="M24.8 -11.8L7.1 -11.8Q7.1 -3.75 17.25 -3.75Q20.75 -3.75 24.2 -4.5L24.2 -0.75Q20.75 0 15.75 0Q2.5 0 2.5 -13.4Q2.5 -26.25 15.05 -26.25Q27.1 -26.25 24.8 -11.8M7.1 -15.65L20.55 -15.65Q20.9 -22.55 14.3 -22.55Q7.55 -22.55 7.1 -15.65" />
</g>
<g id="PathID_116" transform="matrix(0.253357, 0, 0, 0.253357, 9.85, 103.7)" opacity="1">
</g>
<g id="PathID_117" transform="matrix(0.253357, 0, 0, 0.253357, 17, 103.7)" opacity="1">
<path style="fill:#FFFFFF;fill-opacity:1" d="M3.75 -1.25L3.75 -5.25Q8.1 -3.75 12.85 -3.75Q19.1 -3.75 19.1 -7.5Q19.1 -11 15 -11L10.75 -11Q2.5 -11 2.5 -18.75Q2.5 -26.25 13.4 -26.25Q18.1 -26.25 22.5 -25L22.5 -21Q18.1 -22.5 13.4 -22.5Q6.85 -22.5 6.85 -18.75Q6.85 -15.25 10.75 -15.25L15 -15.25Q23.75 -15.25 23.75 -7.5Q23.75 0 12.85 0Q8.1 0 3.75 -1.25" />
</g>
<g id="PathID_118" transform="matrix(0.253357, 0, 0, 0.253357, 17, 103.7)" opacity="1">
</g>
<g id="PathID_119" transform="matrix(0.253357, 0, 0, 0.253357, 23.65, 103.7)" opacity="1">
<path style="fill:#FFFFFF;fill-opacity:1" d="M3.75 -30.5L6.65 -30.5L7.65 -26.25L13.75 -26.25L13.75 -22.5L8.35 -22.5L8.35 -7.4Q8.35 -3.75 11.55 -3.75L13.75 -3.75L13.75 0L10.35 0Q3.75 0 3.75 -7.05L3.75 -30.5" />
</g>
<g id="PathID_120" transform="matrix(0.253357, 0, 0, 0.253357, 23.65, 103.7)" opacity="1">
</g>
<g id="PathID_121" transform="matrix(0.253357, 0, 0, 0.253357, 30.8, 103.7)" opacity="1">
<path style="fill:#FFFFFF;fill-opacity:1" d="M31.25 -1.25Q26.6 0.25 21.25 0.25Q2.5 0.25 2.5 -18.35Q2.5 -36 21.25 -36Q26.6 -36 31.25 -34.5L31.25 -30.5Q26.6 -32.25 21.75 -32.25Q7.1 -32.25 7.1 -18.35Q7.1 -3.5 21.75 -3.5Q26.6 -3.5 31.25 -5.25L31.25 -1.25" />
</g>
<g id="PathID_122" transform="matrix(0.253357, 0, 0, 0.253357, 30.8, 103.7)" opacity="1">
</g>
<g id="PathID_123" transform="matrix(0.253357, 0, 0, 0.253357, 39.55, 103.7)" opacity="1">
<path style="fill:#FFFFFF;fill-opacity:1" d="M3.75 0L3.75 -35.75L19 -35.75Q29.2 -35.75 29.2 -27.15Q29.2 -20.2 19.2 -16.85L31.5 0L25.4 0L14 -16.05L14 -19.1Q24.25 -20.7 24.25 -26.95Q24.25 -31.9 18.55 -31.9L8.35 -31.9L8.35 0L3.75 0" />
</g>
<g id="PathID_124" transform="matrix(0.253357, 0, 0, 0.253357, 39.55, 103.7)" opacity="1">
</g>
<g id="PathID_125" transform="matrix(0.253357, 0, 0, 0.253357, 47.65, 103.7)" opacity="1">
<path style="fill:#FFFFFF;fill-opacity:1" d="M3.75 0L3.75 -35.75L9.6 -35.75L22.75 -5.9L35.6 -35.75L41.25 -35.75L41.25 0L37.1 0L37.1 -28.8L24.4 0L20.75 0L7.85 -28.8L7.85 0L3.75 0" />
</g>
<g id="PathID_126" transform="matrix(0.253357, 0, 0, 0.253357, 47.65, 103.7)" opacity="1">
</g>
<g id="PathID_127" transform="matrix(0.253357, 0, 0, 0.253357, 62.1, 103.7)" opacity="1">
<path style="fill:#FFFFFF;fill-opacity:1" d="M4.25 -1.25L4.25 -5.5Q9.85 -3.5 16.4 -3.5Q25.6 -3.5 25.6 -10.25Q25.6 -16 18.8 -16L13.7 -16Q2.5 -16 2.5 -25.75Q2.5 -36 16.85 -36Q23.1 -36 28.5 -34.5L28.5 -30.25Q23.1 -32.25 16.85 -32.25Q7.1 -32.25 7.1 -25.75Q7.1 -20 13.7 -20L18.8 -20Q30.25 -20 30.25 -10.25Q30.25 0.25 16.4 0.25Q9.85 0.25 4.25 -1.25" />
</g>
<g id="PathID_128" transform="matrix(0.253357, 0, 0, 0.253357, 62.1, 103.7)" opacity="1">
</g>
<g id="PathID_129" transform="matrix(0.253357, 0, 0, 0.253357, 70.35, 103.7)" opacity="1">
<path style="fill:#FFFFFF;fill-opacity:1" d="M0.6 -26.25L5.65 -26.25L13.05 -5.75L20.75 -26.25L25.65 -26.25L14.75 0.75Q11.85 7.9 6.05 9.7L4.25 6.4Q8.65 4.5 10.65 0.15L0.6 -26.25" />
</g>
<g id="PathID_130" transform="matrix(0.253357, 0, 0, 0.253357, 70.35, 103.7)" opacity="1">
</g>
<g id="PathID_131" transform="matrix(0.253357, 0, 0, 0.253357, 77, 103.7)" opacity="1">
<path style="fill:#FFFFFF;fill-opacity:1" d="M3.75 -1.25L3.75 -5.25Q8.1 -3.75 12.85 -3.75Q19.1 -3.75 19.1 -7.5Q19.1 -11 15 -11L10.75 -11Q2.5 -11 2.5 -18.75Q2.5 -26.25 13.4 -26.25Q18.1 -26.25 22.5 -25L22.5 -21Q18.1 -22.5 13.4 -22.5Q6.85 -22.5 6.85 -18.75Q6.85 -15.25 10.75 -15.25L15 -15.25Q23.75 -15.25 23.75 -7.5Q23.75 0 12.85 0Q8.1 0 3.75 -1.25" />
</g>
<g id="PathID_132" transform="matrix(0.253357, 0, 0, 0.253357, 77, 103.7)" opacity="1">
</g>
<g id="PathID_133" transform="matrix(0.253357, 0, 0, 0.253357, 83.65, 103.7)" opacity="1">
<path style="fill:#FFFFFF;fill-opacity:1" d="M3.75 -30.5L6.65 -30.5L7.65 -26.25L13.75 -26.25L13.75 -22.5L8.35 -22.5L8.35 -7.4Q8.35 -3.75 11.55 -3.75L13.75 -3.75L13.75 0L10.35 0Q3.75 0 3.75 -7.05L3.75 -30.5" />
</g>
<g id="PathID_134" transform="matrix(0.253357, 0, 0, 0.253357, 83.65, 103.7)" opacity="1">
</g>
<g id="PathID_135" transform="matrix(0.253357, 0, 0, 0.253357, 87.75, 103.7)" opacity="1">
<path style="fill:#FFFFFF;fill-opacity:1" d="M24.8 -11.8L7.1 -11.8Q7.1 -3.75 17.25 -3.75Q20.75 -3.75 24.2 -4.5L24.2 -0.75Q20.75 0 15.75 0Q2.5 0 2.5 -13.4Q2.5 -26.25 15.05 -26.25Q27.1 -26.25 24.8 -11.8M7.1 -15.65L20.55 -15.65Q20.9 -22.55 14.3 -22.55Q7.55 -22.55 7.1 -15.65" />
</g>
<g id="PathID_136" transform="matrix(0.253357, 0, 0, 0.253357, 87.75, 103.7)" opacity="1">
</g>
<g id="PathID_137" transform="matrix(0.253357, 0, 0, 0.253357, 94.85, 103.7)" opacity="1">
<path style="fill:#FFFFFF;fill-opacity:1" d="M3.75 0L3.75 -26.25L6.85 -26.25L7.65 -22.95Q12.15 -26.25 16.6 -26.25Q21.55 -26.25 23.65 -22.65Q28.65 -26.25 33.05 -26.25Q41.35 -26.25 41.35 -16.25L41.35 0L36.75 0L36.75 -16.5Q36.75 -22.4 31.8 -22.4Q28.1 -22.4 24.85 -19L24.85 0L20.25 0L20.25 -16.45Q20.25 -22.4 15.35 -22.4Q11.45 -22.4 8.35 -19L8.35 0L3.75 0" />
</g>
<g id="PathID_138" transform="matrix(0.253357, 0, 0, 0.253357, 94.85, 103.7)" opacity="1">
</g>
<g id="PathID_139" transform="matrix(0.447474, 0, 0, 0.447474, 13.45, 0)" opacity="1">
<path style="fill:#FF7A53;fill-opacity:1" d="M167.95 39.25Q167.95 44.55 162.9 44.55Q157.85 44.55 157.85 39.25Q157.85 34.1 162.9 34.1Q167.95 34.1 167.95 39.25M180.6 63Q180.6 67.7 175.45 67.7Q170.6 67.7 170.6 63Q170.6 57.75 175.45 57.75Q180.6 57.75 180.6 63M166.05 68.6Q166.05 71.55 163.9 73.85Q161.65 76.1 158 76.1Q155.3 76.1 152.7 73.85Q150.9 71.55 150.9 68.6Q150.9 65.5 152.7 63.25Q155.3 61.2 158 61.2Q161.65 61.2 163.9 63.25Q166.05 65.5 166.05 68.6M165.05 94.6Q162.9 96.8 159.65 96.8Q156.85 96.8 154.4 94.6Q152.05 92.6 152.05 89.3Q152.05 86.4 154.4 84.2Q156.85 82.05 159.65 82.05Q167.4 82.05 167.4 89.3Q167.4 92.6 165.05 94.6M180.45 84.2Q185.3 84.2 185.3 89.3Q185.3 94.35 180.45 94.35Q175.1 94.35 175.1 89.3Q175.1 84.2 180.45 84.2M163.9 114.65Q161.65 116.75 158 116.75Q155.3 116.75 152.7 114.65Q150.9 112.25 150.9 109.35Q150.9 106.35 152.7 104.2Q155.3 101.95 158 101.95Q166.05 101.95 166.05 109.35Q166.05 112.25 163.9 114.65M162.9 144.85Q157.85 144.85 157.85 139.4Q157.85 134.65 162.9 134.65Q167.95 134.65 167.95 139.4Q167.95 144.85 162.9 144.85M180.6 116.3Q180.6 121.45 175.45 121.45Q170.6 121.45 170.6 116.3Q170.6 111.3 175.45 111.3Q180.6 111.3 180.6 116.3M149.35 21.45Q149.35 26.65 144.55 26.65Q139.6 26.65 139.6 21.45Q139.6 16.1 144.55 16.1Q149.35 16.1 149.35 21.45M125.2 35.9Q125.2 32.9 127.5 30.65Q129.75 28.5 132.8 28.5Q135.6 28.5 138.25 30.65Q140.5 32.9 140.5 35.9Q140.5 43.2 132.8 43.2Q125.2 43.2 125.2 35.9M153.5 45Q155.6 47.2 155.6 50.25Q155.6 53.4 153.5 55.6Q150.9 57.75 148 57.75Q144.85 57.75 142.75 55.6Q140.5 53.4 140.5 50.25Q140.5 47.2 142.75 45Q144.85 43 148 43Q150.9 43 153.5 45M113.75 20.05Q116.8 20.05 119.25 22.35Q121.25 24.85 121.25 27.55Q121.25 30.65 119.25 32.9Q116.8 35 113.75 35Q110.6 35 108.25 32.9Q106.25 30.65 106.25 27.55Q106.25 24.85 108.25 22.35Q110.6 20.05 113.75 20.05M116 8.85Q116 3.55 120.9 3.55Q125.6 3.55 125.6 8.85Q125.6 13.95 120.9 13.95Q116 13.95 116 8.85M87.2 4.8Q87.2 0 92.35 0Q96.95 0 96.95 4.8Q96.95 10.5 92.35 10.5Q87.2 10.5 87.2 4.8M86.75 19.1Q88.9 16.9 92.35 16.9Q95.25 16.9 97.6 19.1Q99.75 21.45 99.75 24.15Q99.75 27.5 97.6 29.4Q95.25 31.55 92.35 31.55Q88.9 31.55 86.75 29.4Q84.55 27.5 84.55 24.15Q84.55 21.45 86.75 19.1M92.35 38.05Q96.15 38.05 99 40.65Q101.9 43.65 101.9 47.65Q101.9 51.15 99 54.15Q96.15 56.75 92.35 56.75Q88.25 56.75 85.4 54.15Q82.4 51.15 82.4 47.65Q82.4 43.65 85.4 40.65Q88.25 38.05 92.35 38.05M118 46.35Q122.05 46.35 124.6 49.1Q127.5 51.95 127.5 55.95Q127.5 59.55 124.6 62.55Q122.05 65.15 118 65.15Q113.75 65.15 111.05 62.55Q108.15 59.55 108.15 55.95Q108.15 51.95 111.05 49.1Q113.75 46.35 118 46.35M133.25 66.6Q137.35 66.6 140.05 69.15Q142.95 71.75 142.95 76.1Q142.95 79.9 140.05 82.25Q137.35 85.2 133.25 85.2Q129.4 85.2 126.6 82.25Q123.6 79.9 123.6 76.1Q123.6 71.75 126.6 69.15Q129.4 66.6 133.25 66.6M133.25 92.7Q137.35 92.7 140.05 95.6Q142.95 98.3 142.95 102.3Q142.95 106.35 140.05 108.8Q137.35 111.5 133.25 111.5Q129.4 111.5 126.6 108.8Q123.6 106.35 123.6 102.3Q123.6 98.3 126.6 95.6Q129.4 92.7 133.25 92.7M71.2 20.05Q74.7 20.05 76.45 22.35Q78.8 24.85 78.8 27.55Q78.8 35 71.2 35Q68.3 35 65.8 32.9Q63.45 30.65 63.45 27.55Q63.45 24.85 65.8 22.35Q68.3 20.05 71.2 20.05M65.8 3.55Q70.85 3.55 70.85 8.85Q70.85 13.95 65.8 13.95Q60.8 13.95 60.8 8.85Q60.8 3.55 65.8 3.55M46.9 21.45Q46.9 26.65 41.65 26.65Q37.15 26.65 37.15 21.45Q37.15 16.1 41.65 16.1Q46.9 16.1 46.9 21.45M52.75 28.5Q55.95 28.5 58.2 30.65Q60.25 32.9 60.25 35.9Q60.25 38.95 58.2 41.15Q55.95 43.2 52.75 43.2Q45.2 43.2 45.2 35.9Q45.2 32.9 47.35 30.65Q49.6 28.5 52.75 28.5M74.7 49.1Q77.45 51.95 77.45 55.95Q77.45 59.55 74.7 62.55Q71.65 65.15 68.05 65.15Q63.95 65.15 61 62.55Q58.2 59.55 58.2 55.95Q58.2 51.95 61 49.1Q63.95 46.35 68.05 46.35Q71.65 46.35 74.7 49.1M22.05 44.55Q17 44.55 17 39.25Q17 34.1 22.05 34.1Q26.85 34.1 26.85 39.25Q26.85 44.55 22.05 44.55M38.05 43Q41.2 43 43.75 45Q45.7 47.2 45.7 50.25Q45.7 57.75 38.05 57.75Q34.95 57.75 32.6 55.6Q30.35 53.4 30.35 50.25Q30.35 47.2 32.6 45Q34.95 43 38.05 43M33.95 73.85Q31.65 76.1 28.45 76.1Q25.4 76.1 23.05 73.85Q20.95 71.55 20.95 68.6Q20.95 65.5 23.05 63.25Q25.4 61.2 28.45 61.2Q31.65 61.2 33.95 63.25Q35.95 65.5 35.95 68.6Q35.95 71.55 33.95 73.85M9.75 67.7Q4.9 67.7 4.9 63Q4.9 57.75 9.75 57.75Q14.75 57.75 14.75 63Q14.75 67.7 9.75 67.7M4.9 94.35Q0 94.35 0 89.3Q0 84.2 4.9 84.2Q9.75 84.2 9.75 89.3Q9.75 94.35 4.9 94.35M31.35 84.2Q33.5 86.4 33.5 89.3Q33.5 92.6 31.35 94.6Q28.65 96.8 25.95 96.8Q22.75 96.8 20.5 94.6Q18.45 92.6 18.45 89.3Q18.45 82.05 25.95 82.05Q28.65 82.05 31.35 84.2M58.2 69.15Q61 71.75 61 76.1Q61 79.9 58.2 82.25Q55.4 85.2 51.4 85.2Q47.35 85.2 44.65 82.25Q41.65 79.9 41.65 76.1Q41.65 71.75 44.65 69.15Q47.35 66.6 51.4 66.6Q55.4 66.6 58.2 69.15M58.2 95.6Q61 98.3 61 102.3Q61 106.35 58.2 108.8Q55.4 111.5 51.4 111.5Q47.35 111.5 44.65 108.8Q41.65 106.35 41.65 102.3Q41.65 98.3 44.65 95.6Q47.35 92.7 51.4 92.7Q55.4 92.7 58.2 95.6M68.05 112.85Q71.65 112.85 74.7 115.4Q77.45 118.35 77.45 122.35Q77.45 125.85 74.7 128.85Q71.65 131.45 68.05 131.45Q63.95 131.45 61 128.85Q58.2 125.85 58.2 122.35Q58.2 118.35 61 115.4Q63.95 112.85 68.05 112.85M52.75 134.65Q55.95 134.65 58.2 136.8Q60.25 138.5 60.25 142.05Q60.25 144.85 58.2 147.35Q55.95 149.45 52.75 149.45Q49.6 149.45 47.35 147.35Q45.2 144.85 45.2 142.05Q45.2 134.65 52.75 134.65M43.75 132.45Q41.2 134.65 38.05 134.65Q34.95 134.65 32.6 132.45Q30.35 129.95 30.35 127.25Q30.35 124.25 32.6 122Q34.95 119.9 38.05 119.9Q45.7 119.9 45.7 127.25Q45.7 129.95 43.75 132.45M76.45 145.1Q78.8 147.35 78.8 150.35Q78.8 157.75 71.2 157.75Q68.3 157.75 65.8 155.6Q63.45 153.45 63.45 150.35Q63.45 147.35 65.8 145.1Q68.3 142.95 71.2 142.95Q74.7 142.95 76.45 145.1M28.45 101.95Q35.95 101.95 35.95 109.35Q35.95 112.25 33.95 114.65Q31.65 116.75 28.45 116.75Q25.4 116.75 23.05 114.65Q20.95 112.25 20.95 109.35Q20.95 106.35 23.05 104.2Q25.4 101.95 28.45 101.95M9.75 121.45Q4.9 121.45 4.9 116.3Q4.9 111.3 9.75 111.3Q14.75 111.3 14.75 116.3Q14.75 121.45 9.75 121.45M26.85 139.4Q26.85 144.85 22.05 144.85Q17 144.85 17 139.4Q17 134.65 22.05 134.65Q26.85 134.65 26.85 139.4M65.8 163.9Q70.85 163.9 70.85 168.8Q70.85 173.55 65.8 173.55Q60.8 173.55 60.8 168.8Q60.8 163.9 65.8 163.9M41.65 162.55Q37.15 162.55 37.15 157.4Q37.15 152.45 41.65 152.45Q46.9 152.45 46.9 157.4Q46.9 162.55 41.65 162.55M153.5 122Q155.6 124.25 155.6 127.25Q155.6 129.95 153.5 132.45Q150.9 134.65 148 134.65Q144.85 134.65 142.75 132.45Q140.5 129.95 140.5 127.25Q140.5 124.25 142.75 122Q144.85 119.9 148 119.9Q150.9 119.9 153.5 122M127.5 122.35Q127.5 125.85 124.6 128.85Q122.05 131.45 118 131.45Q113.75 131.45 111.05 128.85Q108.15 125.85 108.15 122.35Q108.15 118.35 111.05 115.4Q113.75 112.85 118 112.85Q122.05 112.85 124.6 115.4Q127.5 118.35 127.5 122.35M140.5 142.05Q140.5 144.85 138.25 147.35Q135.6 149.45 132.8 149.45Q129.75 149.45 127.5 147.35Q125.2 144.85 125.2 142.05Q125.2 134.65 132.8 134.65Q135.6 134.65 138.25 136.8Q140.5 138.5 140.5 142.05M99 123.7Q101.9 126.3 101.9 129.95Q101.9 133.9 99 136.8Q96.15 139.4 92.35 139.4Q88.25 139.4 85.4 136.8Q82.4 133.9 82.4 129.95Q82.4 126.3 85.4 123.7Q88.25 120.8 92.35 120.8Q96.15 120.8 99 123.7M113.75 142.95Q116.8 142.95 119.25 145.1Q121.25 147.35 121.25 150.35Q121.25 153.45 119.25 155.6Q116.8 157.75 113.75 157.75Q110.6 157.75 108.25 155.6Q106.25 153.45 106.25 150.35Q106.25 147.35 108.25 145.1Q110.6 142.95 113.75 142.95M120.9 163.9Q125.6 163.9 125.6 168.8Q125.6 173.55 120.9 173.55Q116 173.55 116 168.8Q116 163.9 120.9 163.9M97.6 159.95Q95.25 161.9 92.35 161.9Q84.55 161.9 84.55 154.8Q84.55 151.45 86.75 149.45Q88.9 147.35 92.35 147.35Q95.25 147.35 97.6 149.45Q99.75 151.45 99.75 154.8Q99.75 157.75 97.6 159.95M96.95 172.15Q96.95 177.1 92.35 177.1Q87.2 177.1 87.2 172.15Q87.2 167.05 92.35 167.05Q96.95 167.05 96.95 172.15M139.6 157.4Q139.6 152.45 144.55 152.45Q149.35 152.45 149.35 157.4Q149.35 162.55 144.55 162.55Q139.6 162.55 139.6 157.4" />
</g>
<g id="PathID_140" transform="matrix(0.447474, 0, 0, 0.447474, 13.45, 0)" opacity="1">
</g>
</svg>
