<?xml version="1.0" encoding="utf-8"?>
<svg version="1.1" id="Layer_1"
xmlns="http://www.w3.org/2000/svg"
xmlns:xlink="http://www.w3.org/1999/xlink"
width="550px" height="400px"
xml:space="preserve">
<g id="PathID_27" transform="matrix(0.338655, 0.271541, -0.271541, 0.338655, 208.65, 252.05)" opacity="1">
<path style="fill:#D83636;fill-opacity:1" d="M22.1 -8.9Q22.95 -7.35 22.95 -5.55Q22.95 -1.6 19.6 1.3Q16.3 4.25 11.9 4.25Q9.25 4.25 7.35 2.85Q5.45 1.5 5.45 -0.55Q5.45 -2.7 7.9 -4.75Q10.4 -6.8 15.8 -9.3L13.95 -12Q10.3 -17.9 10.3 -21.25Q10.3 -26.25 16.15 -29.3Q20.1 -27.8 20.1 -25.55Q20.1 -22.55 15.85 -20.1L18.55 -15.35L20.5 -11.65Q24.65 -14.35 27 -16.3Q29.35 -18.3 33.2 -22.65L35.85 -21.05Q30.4 -13.5 22.1 -8.9M17.1 -6.4Q10.75 -2.75 10.75 -0.9Q10.75 0.6 13.1 0.6Q15 0.6 16.2 -0.7Q17.45 -2 17.45 -4.1Q17.45 -5.35 17.1 -6.4" />
</g>
<g id="PathID_28" transform="matrix(0.338655, 0.271541, -0.271541, 0.338655, 208.65, 252.05)" opacity="1">
</g>
<g id="PathID_29" transform="matrix(0.387711, 0.195197, -0.195197, 0.387711, 219.7, 260.4)" opacity="1">
<path style="fill:#D83636;fill-opacity:1" d="M27.5 -14.95Q25.35 -8.7 20.6 -4.05Q15.9 0.6 12.25 0.6Q9.35 0.6 7.7 -1.85Q6.05 -4.35 6.05 -8.35Q6.05 -16.2 10.8 -22.2Q15.6 -28.2 21.95 -28.2Q25.8 -28.2 29.65 -25.9Q30.25 -28.15 35.2 -28.15L36.7 -28.1Q35.25 -25.3 34.55 -21.7L34.1 -19.6Q33.45 -16.2 33.45 -11.6Q33.45 -6.75 35.4 -6.75Q37.8 -6.75 42.3 -11.05Q46.85 -15.4 51.55 -22.4L54.15 -20.7Q49.5 -12.2 43.55 -6.7Q37.6 -1.2 33.15 -1.2Q27.4 -1.2 27.4 -10.5L27.5 -14.95M28.65 -21.2Q23.85 -24.2 20.6 -24.2Q17.2 -24.2 14.6 -19.85Q12.05 -15.55 12.05 -9.5Q12.05 -5.1 14.7 -5.1Q17.95 -5.1 27.75 -20.2Q27.9 -20.45 28.65 -21.2" />
</g>
<g id="PathID_30" transform="matrix(0.387711, 0.195197, -0.195197, 0.387711, 219.7, 260.4)" opacity="1">
</g>
<g id="PathID_31" transform="matrix(0.421684, 0.102978, -0.102978, 0.421684, 239.95, 270.2)" opacity="1">
<path style="fill:#D83636;fill-opacity:1" d="M13.5 0.65Q14.05 -2.05 14.05 -3.55Q14.05 -9.5 11.5 -16.75Q8.95 -24 5.45 -28.15Q7.9 -29.6 9.75 -29.6Q12.8 -29.6 15.65 -22.3Q18.5 -15.05 19.55 -5.4Q23 -10.6 25.75 -16.3Q28.55 -22.05 28.95 -26.6Q33.65 -24.95 33.65 -22.75Q33.65 -21 30.05 -15Q26.5 -9.05 22.35 -3.8Q20.3 -1.15 18.8 -0.35Q17.35 0.4 13.5 0.65" />
</g>
<g id="PathID_32" transform="matrix(0.421684, 0.102978, -0.102978, 0.421684, 239.95, 270.2)" opacity="1">
</g>
<g id="PathID_33" transform="matrix(0.433159, 0.0281887, -0.0281887, 0.433159, 256.15, 274.1)" opacity="1">
<path style="fill:#D83636;fill-opacity:1" d="M12.5 -10.2Q12.5 -4.05 18 -4.05Q23.1 -4.05 29.35 -8.95Q35.6 -13.85 40.9 -22.2L43.75 -20.75Q38.8 -11.3 31 -5.35Q23.2 0.6 16.1 0.6Q11.45 0.6 8.75 -2.35Q6.1 -5.35 6.1 -10.5Q6.1 -17.8 10.85 -23Q15.65 -28.2 22.4 -28.2Q25.8 -28.2 27.85 -26.45Q29.95 -24.7 29.95 -21.8Q29.95 -17.2 24.45 -13.7Q18.95 -10.2 12.5 -10.2M12.65 -13.55Q17.1 -13.8 20.6 -16.3Q24.15 -18.85 24.15 -22.1Q24.15 -24.75 21.8 -24.75Q18.75 -24.75 16.05 -21.3Q13.35 -17.9 12.65 -13.55" />
</g>
<g id="PathID_34" transform="matrix(0.433159, 0.0281887, -0.0281887, 0.433159, 256.15, 274.1)" opacity="1">
</g>
<g id="PathID_35" transform="matrix(0.425695, -0.0848817, 0.0848817, 0.425695, 282.6, 273.95)" opacity="1">
<path style="fill:#D83636;fill-opacity:1" d="M34.7 -20.55Q29.5 -10.5 24.25 -4.95Q19.05 0.6 14.85 0.6Q11.75 0.6 9.85 -1.75Q8 -4.1 8 -7.9Q8 -9.95 8.7 -13.65L13.65 -37.55Q13.25 -37.45 12.45 -37.45Q6.3 -37.45 6.3 -42.7L6.3 -43.8Q9.85 -42.1 13.45 -42.1Q17 -42.1 20.5 -43.95L14.75 -13.8Q14.05 -9.9 14.05 -8.4Q14.05 -4.8 16.5 -4.8Q19.2 -4.8 22.1 -8Q25 -11.2 32.05 -22.25L34.7 -20.55" />
</g>
<g id="PathID_36" transform="matrix(0.425695, -0.0848817, 0.0848817, 0.425695, 282.6, 273.95)" opacity="1">
</g>
<g id="PathID_37" transform="matrix(0.409739, -0.143301, 0.143301, 0.409739, 294.4, 271.3)" opacity="1">
<path style="fill:#D83636;fill-opacity:1" d="M36.65 -20.7Q30.95 -10.5 25.2 -4.95Q19.45 0.6 14.7 0.6Q11.7 0.6 9.9 -1.3Q8.1 -3.25 8.1 -6.35Q8.1 -7.5 8.6 -9.95L9.2 -12.9Q10.35 -18.45 10.35 -20.75Q10.35 -21.95 9.5 -23.3Q13.15 -24.25 14 -24.25Q16.4 -24.25 16.4 -21.2Q16.4 -19.3 15.65 -15.7L14.6 -10.65Q14 -7.55 14 -6.55Q14 -4.05 16 -4.05Q18.85 -4.05 23.85 -9.1Q28.85 -14.15 33.9 -22.25L36.65 -20.7M13.95 -33.35L14.6 -33.35Q16.1 -33.4 19.1 -34.95Q22.1 -36.5 24.7 -38.25Q23.55 -34.05 20.85 -32.55Q16.35 -28.1 14.7 -28.1Q13.2 -28.1 13.2 -29.75Q13.2 -31.6 13.95 -33.35" />
</g>
<g id="PathID_38" transform="matrix(0.409739, -0.143301, 0.143301, 0.409739, 294.4, 271.3)" opacity="1">
</g>
<g id="PathID_39" transform="matrix(0.389221, -0.192167, 0.192167, 0.389221, 306.4, 266.8)" opacity="1">
<path style="fill:#D83636;fill-opacity:1" d="M10.1 -19.55Q6.65 -19.55 3.25 -17.7Q3.85 -21.65 5.1 -22.6Q6.4 -23.55 10.25 -23.55L10.75 -23.55L11.5 -27.15Q13.15 -35.55 16.9 -39.25Q21.5 -43.95 27.15 -43.95Q29.4 -43.95 31.1 -42.8Q32.8 -41.7 32.8 -40.1Q32.8 -38.4 28.8 -36.35Q27.85 -40.1 25.1 -40.1Q20 -40.1 17.65 -28.35L16.6 -23.55L24.6 -23.55Q30.4 -23.55 33.75 -24.15Q32.4 -20.7 30.75 -20.1Q29.1 -19.55 22.75 -19.55L15.9 -19.55L11.75 1.1Q11.2 4.1 11.2 6.35Q11.2 7.7 11.8 9.25Q8.9 10.25 7.5 10.25Q5 10.25 5 7.5Q5 5.65 5.8 1.5L10.1 -19.55" />
</g>
<g id="PathID_40" transform="matrix(0.389221, -0.192167, 0.192167, 0.389221, 306.4, 266.8)" opacity="1">
</g>
<g id="PathID_41" transform="matrix(0.354368, -0.250689, 0.250689, 0.354368, 316.3, 261.4)" opacity="1">
<path style="fill:#D83636;fill-opacity:1" d="M12.5 -10.2Q12.5 -4.05 18 -4.05Q23.1 -4.05 29.35 -8.95Q35.6 -13.85 40.9 -22.2L43.75 -20.75Q38.8 -11.3 31 -5.35Q23.2 0.6 16.1 0.6Q11.45 0.6 8.75 -2.35Q6.1 -5.35 6.1 -10.5Q6.1 -17.8 10.85 -23Q15.65 -28.2 22.4 -28.2Q25.8 -28.2 27.85 -26.45Q29.95 -24.7 29.95 -21.8Q29.95 -17.2 24.45 -13.7Q18.95 -10.2 12.5 -10.2M12.65 -13.55Q17.1 -13.8 20.6 -16.3Q24.15 -18.85 24.15 -22.1Q24.15 -24.75 21.8 -24.75Q18.75 -24.75 16.05 -21.3Q13.35 -17.9 12.65 -13.55" />
</g>
<g id="PathID_42" transform="matrix(0.354368, -0.250689, 0.250689, 0.354368, 316.3, 261.4)" opacity="1">
</g>
<g id="PathID_43" transform="matrix(2.05764, 0.0315137, -0.0315137, 2.05764, 270.7, 208.1)" opacity="1">
<linearGradient
id="LinearGradID_3" gradientUnits="userSpaceOnUse" gradientTransform="matrix(-1.51138e-009, 0.0345764, -0.0345764, -1.51138e-009, 0, 0)" spreadMethod ="pad" x1="-819.2" y1="0" x2="819.2" y2="0" >
<stop  offset="0" style="stop-color:#EC3C3C;stop-opacity:0" />
<stop  offset="1" style="stop-color:#B00000;stop-opacity:1" />
</linearGradient>
<path style="fill:url(#LinearGradID_3) " d="M27.55 -13.9L27.7 -13.95Q28.35 -10.7 28.35 -7.95Q28.35 5.3 17.65 12.7Q9.25 18.35 -0.2 18.35Q-8.85 18.35 -17.25 11.9Q-27.5 4.2 -28.3 -7.95Q-28.65 -12.35 -26.8 -18.3L-17.9 -16.35Q-0.35 -12.25 3.6 -11.65Q10.4 -10.6 18.15 -11.95Q25.85 -13.35 27.55 -13.9" />
</g>
<g id="PathID_44" transform="matrix(2.05764, 0.0315137, -0.0315137, 2.05764, 270.7, 208.1)" opacity="1">
</g>
<g id="PathID_45" transform="matrix(2.05764, 0.0315137, -0.0315137, 2.05764, 269.2, 163.65)" opacity="1">
<path style="fill:#D83636;fill-opacity:1" d="M1.05 -41.45L15.45 -21.55L15.5 -21.5Q29.95 1.4 29.85 14.35Q29.85 28.4 18.5 36.25Q9.7 42.15 -0.2 42.15Q-9.3 42.2 -18.15 35.4Q-28.95 27.3 -29.8 14.45Q-30.8 2.4 -15.95 -21L-15.9 -21.05L-1.4 -41.45L-0.65 -42Q-0.2 -42.2 0.25 -42L1.05 -41.45M-13.4 -19.4L-13.45 -19.3Q-27.55 2.9 -26.8 14.25Q-26.05 25.7 -16.35 33L-16.3 33Q-8.4 39.1 -0.2 39.15Q8.8 39.15 16.8 33.8L16.85 33.75Q26.85 26.8 26.85 14.35Q26.75 2.05 13 -19.8L-0.2 -38L-13.4 -19.4" />
</g>
<g id="PathID_46" transform="matrix(2.05764, 0.0315137, -0.0315137, 2.05764, 269.2, 163.65)" opacity="1">
</g>
<g id="PathID_47" transform="matrix(1.10558, 0.00110237, 0.00081105, -0.813435, 422.3, 217.3)" opacity="1">
<linearGradient
id="LinearGradID_4" gradientUnits="userSpaceOnUse" gradientTransform="matrix(-6.3897e-010, -0.0146179, 0.0146179, -6.3897e-010, 0, 0)" spreadMethod ="pad" x1="-819.2" y1="0" x2="819.2" y2="0" >
<stop  offset="0.305882" style="stop-color:#FFFFFF;stop-opacity:0" />
<stop  offset="1" style="stop-color:#FFFFFF;stop-opacity:0.537255" />
</linearGradient>
<path style="fill:url(#LinearGradID_4) " d="M8.4 -8.65Q12 -5.05 12 0Q12 5.1 8.4 8.4Q5.1 12 0.05 12Q-4.75 12 -8.35 8.4Q-11.95 5.1 -11.95 0Q-11.95 -5.05 -8.35 -8.65Q-5.05 -11.95 0.05 -11.95Q5.1 -11.95 8.4 -8.65" />
</g>
<g id="PathID_48" transform="matrix(1.10558, 0.00110237, 0.00081105, -0.813435, 422.3, 217.3)" opacity="1">
</g>
<g id="PathID_49" transform="matrix(-1.41942, -1.24089e-007, 1.24089e-007, -1.41942, 261.2, 213.8)" opacity="1">
<path style="fill:#D83636;fill-opacity:1" d="M33.7 5.45Q33.6 6.1 33.1 6.5L27.65 10.95Q27.25 11.3 27 11.85L25.55 16.1L25.5 16.15L23.3 19.05L22.9 19.1L22.2 18.6L21.85 18.55Q21.7 18.55 21.6 18.7L20.8 19.8L20.55 19.95Q20.4 19.95 20.3 19.8Q19.95 19.15 19.35 19.5L18.55 19.85Q18.25 20.05 18.15 19.7L17.75 18.1L17.55 17.8L17.2 17.8L13.7 18.95L13.35 18.85L13.3 18.55L14 17.1L14.2 16.95L18.3 16.05L18.6 15.9L20.95 14.3L21.25 13.7L21.35 10.3L21.05 10L20.75 10Q20.45 10 20.45 10.3L20.4 13.5L20.25 13.7L18.15 15.15L18.05 15.2L13.8 16.15L13.25 16.55L11.1 21.25L10.9 21.4L9.05 21.7Q8.7 21.8 8.7 21.4L9.15 14.4L9.3 14.15L12.9 11.85L13.15 11.55L13.75 10.45Q13.9 10.2 13.65 10.05L13.5 10L13.4 9.95Q13.1 9.75 13 10.05L12.45 11.05L12.35 11.15L8.5 13.6L8.3 13.95L8.05 17.85L7.95 18.05L1.8 22.75L0.55 22.8L0.05 22.15Q-0.05 21.7 0.2 21.3L6.3 12.35L6.4 12.25L19.4 4.85L19.45 4.85L25.05 3.1L25.85 2.6L28 0.45Q28.55 -0.05 29.2 0Q29.9 0.05 30.35 0.55L33.35 4.3Q33.75 4.8 33.7 5.45M23.35 20.85L20.4 25.5L20.1 25.6L18.15 25.25L17.9 25Q17.85 24.8 18.05 24.7L21.2 22.85Q21.8 22.5 21.45 21.9L21.1 21.2L21.1 20.9L21.9 19.8L22.3 19.75L23.3 20.45L23.35 20.85M20.35 22.35L14.1 25.95Q13.8 26.15 13.7 25.8L13.15 24.45L13.35 24.05L18.1 22.15Q18.7 21.9 18.55 21.3L18.5 21.15Q18.4 20.9 18.65 20.8L19.35 20.45Q19.6 20.35 19.75 20.6L20.5 21.95L20.35 22.35M10 22.45L11.25 22.25L11.8 21.8L12.5 20.35L12.65 20.2L16.7 18.85Q17 18.75 17.1 19.05L17.6 21.15L17.45 21.45L10.3 24.35L10.05 24.35L9.9 24.1L9.75 22.75Q9.75 22.45 10 22.45" />
</g>
<g id="PathID_50" transform="matrix(-1.41942, -1.24089e-007, 1.24089e-007, -1.41942, 261.2, 213.8)" opacity="1">
</g>
<g id="PathID_51" transform="matrix(1.3716, 0, 0, 1.3716, 261.75, 131.35)" opacity="1">
<path style="fill:#D83636;fill-opacity:1" d="M33.7 5.45Q33.6 6.1 33.1 6.5L27.65 10.95Q27.25 11.3 27 11.85L25.55 16.1L25.5 16.15L23.3 19.05L22.9 19.1L22.2 18.6L21.85 18.55Q21.7 18.55 21.6 18.7L20.8 19.8L20.55 19.95Q20.4 19.95 20.3 19.8Q19.95 19.15 19.35 19.5L18.55 19.85Q18.25 20.05 18.15 19.7L17.75 18.1L17.55 17.8L17.2 17.8L13.7 18.95L13.35 18.85L13.3 18.55L14 17.1L14.2 16.95L18.3 16.05L18.6 15.9L20.95 14.3L21.25 13.7L21.35 10.3L21.05 10L20.75 10Q20.45 10 20.45 10.3L20.4 13.5L20.25 13.7L18.15 15.15L18.05 15.2L13.8 16.15L13.25 16.55L11.1 21.25L10.9 21.4L9.05 21.7Q8.7 21.8 8.7 21.4L9.15 14.4L9.3 14.15L12.9 11.85L13.15 11.55L13.75 10.45Q13.9 10.2 13.65 10.05L13.5 10L13.4 9.95Q13.1 9.75 13 10.05L12.45 11.05L12.35 11.15L8.5 13.6L8.3 13.95L8.05 17.85L7.95 18.05L1.8 22.75L0.55 22.8L0.05 22.15Q-0.05 21.7 0.2 21.3L6.3 12.35L6.4 12.25L19.4 4.85L19.45 4.85L25.05 3.1L25.85 2.6L28 0.45Q28.55 -0.05 29.2 0Q29.9 0.05 30.35 0.55L33.35 4.3Q33.75 4.8 33.7 5.45M23.35 20.85L20.4 25.5L20.1 25.6L18.15 25.25L17.9 25Q17.85 24.8 18.05 24.7L21.2 22.85Q21.8 22.5 21.45 21.9L21.1 21.2L21.1 20.9L21.9 19.8L22.3 19.75L23.3 20.45L23.35 20.85M20.35 22.35L14.1 25.95Q13.8 26.15 13.7 25.8L13.15 24.45L13.35 24.05L18.1 22.15Q18.7 21.9 18.55 21.3L18.5 21.15Q18.4 20.9 18.65 20.8L19.35 20.45Q19.6 20.35 19.75 20.6L20.5 21.95L20.35 22.35M10 22.45L11.25 22.25L11.8 21.8L12.5 20.35L12.65 20.2L16.7 18.85Q17 18.75 17.1 19.05L17.6 21.15L17.45 21.45L10.3 24.35L10.05 24.35L9.9 24.1L9.75 22.75Q9.75 22.45 10 22.45" />
</g>
<g id="PathID_52" transform="matrix(1.3716, 0, 0, 1.3716, 261.75, 131.35)" opacity="1">
</g>
</svg>
