<?xml version="1.0" encoding="utf-8"?>
<svg version="1.1" id="Layer_1"
xmlns="http://www.w3.org/2000/svg"
xmlns:xlink="http://www.w3.org/1999/xlink"
width="109px" height="94px"
xml:space="preserve">
<g id="PathID_29" transform="matrix(0.253357, 0, 0, 0.253357, 1.6, 89.2)" opacity="1">
<path style="fill:#FFFFFF;fill-opacity:1" d="M3.75 0L3.75 -35.75L19 -35.75Q29.2 -35.75 29.2 -27.4Q29.2 -21.3 22.55 -18.7Q29.65 -17.35 29.65 -10.55Q29.65 0 18.45 0L3.75 0M18.2 -3.75Q24.6 -3.75 24.6 -10.25Q24.6 -16.55 16 -16.55L14 -16.55L14 -19.6Q24.25 -20.95 24.25 -27Q24.25 -32 18.55 -32L8.35 -32L8.35 -3.75L18.2 -3.75" />
</g>
<g id="PathID_30" transform="matrix(0.253357, 0, 0, 0.253357, 1.6, 89.2)" opacity="1">
</g>
<g id="PathID_31" transform="matrix(0.253357, 0, 0, 0.253357, 9.85, 89.2)" opacity="1">
<path style="fill:#FFFFFF;fill-opacity:1" d="M24.8 -11.8L7.1 -11.8Q7.1 -3.75 17.25 -3.75Q20.75 -3.75 24.2 -4.5L24.2 -0.75Q20.75 0 15.75 0Q2.5 0 2.5 -13.4Q2.5 -26.25 15.05 -26.25Q27.1 -26.25 24.8 -11.8M7.1 -15.65L20.55 -15.65Q20.9 -22.55 14.3 -22.55Q7.55 -22.55 7.1 -15.65" />
</g>
<g id="PathID_32" transform="matrix(0.253357, 0, 0, 0.253357, 9.85, 89.2)" opacity="1">
</g>
<g id="PathID_33" transform="matrix(0.253357, 0, 0, 0.253357, 17, 89.2)" opacity="1">
<path style="fill:#FFFFFF;fill-opacity:1" d="M3.75 -1.25L3.75 -5.25Q8.1 -3.75 12.85 -3.75Q19.1 -3.75 19.1 -7.5Q19.1 -11 15 -11L10.75 -11Q2.5 -11 2.5 -18.75Q2.5 -26.25 13.4 -26.25Q18.1 -26.25 22.5 -25L22.5 -21Q18.1 -22.5 13.4 -22.5Q6.85 -22.5 6.85 -18.75Q6.85 -15.25 10.75 -15.25L15 -15.25Q23.75 -15.25 23.75 -7.5Q23.75 0 12.85 0Q8.1 0 3.75 -1.25" />
</g>
<g id="PathID_34" transform="matrix(0.253357, 0, 0, 0.253357, 17, 89.2)" opacity="1">
</g>
<g id="PathID_35" transform="matrix(0.253357, 0, 0, 0.253357, 23.65, 89.2)" opacity="1">
<path style="fill:#FFFFFF;fill-opacity:1" d="M3.75 -30.5L6.65 -30.5L7.65 -26.25L13.75 -26.25L13.75 -22.5L8.35 -22.5L8.35 -7.4Q8.35 -3.75 11.55 -3.75L13.75 -3.75L13.75 0L10.35 0Q3.75 0 3.75 -7.05L3.75 -30.5" />
</g>
<g id="PathID_36" transform="matrix(0.253357, 0, 0, 0.253357, 23.65, 89.2)" opacity="1">
</g>
<g id="PathID_37" transform="matrix(0.253357, 0, 0, 0.253357, 30.8, 89.2)" opacity="1">
<path style="fill:#FFFFFF;fill-opacity:1" d="M31.25 -1.25Q26.6 0.25 21.25 0.25Q2.5 0.25 2.5 -18.35Q2.5 -36 21.25 -36Q26.6 -36 31.25 -34.5L31.25 -30.5Q26.6 -32.25 21.75 -32.25Q7.1 -32.25 7.1 -18.35Q7.1 -3.5 21.75 -3.5Q26.6 -3.5 31.25 -5.25L31.25 -1.25" />
</g>
<g id="PathID_38" transform="matrix(0.253357, 0, 0, 0.253357, 30.8, 89.2)" opacity="1">
</g>
<g id="PathID_39" transform="matrix(0.253357, 0, 0, 0.253357, 39.55, 89.2)" opacity="1">
<path style="fill:#FFFFFF;fill-opacity:1" d="M3.75 0L3.75 -35.75L19 -35.75Q29.2 -35.75 29.2 -27.15Q29.2 -20.2 19.2 -16.85L31.5 0L25.4 0L14 -16.05L14 -19.1Q24.25 -20.7 24.25 -26.95Q24.25 -31.9 18.55 -31.9L8.35 -31.9L8.35 0L3.75 0" />
</g>
<g id="PathID_40" transform="matrix(0.253357, 0, 0, 0.253357, 39.55, 89.2)" opacity="1">
</g>
<g id="PathID_41" transform="matrix(0.253357, 0, 0, 0.253357, 47.65, 89.2)" opacity="1">
<path style="fill:#FFFFFF;fill-opacity:1" d="M3.75 0L3.75 -35.75L9.6 -35.75L22.75 -5.9L35.6 -35.75L41.25 -35.75L41.25 0L37.1 0L37.1 -28.8L24.4 0L20.75 0L7.85 -28.8L7.85 0L3.75 0" />
</g>
<g id="PathID_42" transform="matrix(0.253357, 0, 0, 0.253357, 47.65, 89.2)" opacity="1">
</g>
<g id="PathID_43" transform="matrix(0.253357, 0, 0, 0.253357, 62.1, 89.2)" opacity="1">
<path style="fill:#FFFFFF;fill-opacity:1" d="M4.25 -1.25L4.25 -5.5Q9.85 -3.5 16.4 -3.5Q25.6 -3.5 25.6 -10.25Q25.6 -16 18.8 -16L13.7 -16Q2.5 -16 2.5 -25.75Q2.5 -36 16.85 -36Q23.1 -36 28.5 -34.5L28.5 -30.25Q23.1 -32.25 16.85 -32.25Q7.1 -32.25 7.1 -25.75Q7.1 -20 13.7 -20L18.8 -20Q30.25 -20 30.25 -10.25Q30.25 0.25 16.4 0.25Q9.85 0.25 4.25 -1.25" />
</g>
<g id="PathID_44" transform="matrix(0.253357, 0, 0, 0.253357, 62.1, 89.2)" opacity="1">
</g>
<g id="PathID_45" transform="matrix(0.253357, 0, 0, 0.253357, 70.35, 89.2)" opacity="1">
<path style="fill:#FFFFFF;fill-opacity:1" d="M0.6 -26.25L5.65 -26.25L13.05 -5.75L20.75 -26.25L25.65 -26.25L14.75 0.75Q11.85 7.9 6.05 9.7L4.25 6.4Q8.65 4.5 10.65 0.15L0.6 -26.25" />
</g>
<g id="PathID_46" transform="matrix(0.253357, 0, 0, 0.253357, 70.35, 89.2)" opacity="1">
</g>
<g id="PathID_47" transform="matrix(0.253357, 0, 0, 0.253357, 77, 89.2)" opacity="1">
<path style="fill:#FFFFFF;fill-opacity:1" d="M3.75 -1.25L3.75 -5.25Q8.1 -3.75 12.85 -3.75Q19.1 -3.75 19.1 -7.5Q19.1 -11 15 -11L10.75 -11Q2.5 -11 2.5 -18.75Q2.5 -26.25 13.4 -26.25Q18.1 -26.25 22.5 -25L22.5 -21Q18.1 -22.5 13.4 -22.5Q6.85 -22.5 6.85 -18.75Q6.85 -15.25 10.75 -15.25L15 -15.25Q23.75 -15.25 23.75 -7.5Q23.75 0 12.85 0Q8.1 0 3.75 -1.25" />
</g>
<g id="PathID_48" transform="matrix(0.253357, 0, 0, 0.253357, 77, 89.2)" opacity="1">
</g>
<g id="PathID_49" transform="matrix(0.253357, 0, 0, 0.253357, 83.65, 89.2)" opacity="1">
<path style="fill:#FFFFFF;fill-opacity:1" d="M3.75 -30.5L6.65 -30.5L7.65 -26.25L13.75 -26.25L13.75 -22.5L8.35 -22.5L8.35 -7.4Q8.35 -3.75 11.55 -3.75L13.75 -3.75L13.75 0L10.35 0Q3.75 0 3.75 -7.05L3.75 -30.5" />
</g>
<g id="PathID_50" transform="matrix(0.253357, 0, 0, 0.253357, 83.65, 89.2)" opacity="1">
</g>
<g id="PathID_51" transform="matrix(0.253357, 0, 0, 0.253357, 87.75, 89.2)" opacity="1">
<path style="fill:#FFFFFF;fill-opacity:1" d="M24.8 -11.8L7.1 -11.8Q7.1 -3.75 17.25 -3.75Q20.75 -3.75 24.2 -4.5L24.2 -0.75Q20.75 0 15.75 0Q2.5 0 2.5 -13.4Q2.5 -26.25 15.05 -26.25Q27.1 -26.25 24.8 -11.8M7.1 -15.65L20.55 -15.65Q20.9 -22.55 14.3 -22.55Q7.55 -22.55 7.1 -15.65" />
</g>
<g id="PathID_52" transform="matrix(0.253357, 0, 0, 0.253357, 87.75, 89.2)" opacity="1">
</g>
<g id="PathID_53" transform="matrix(0.253357, 0, 0, 0.253357, 94.85, 89.2)" opacity="1">
<path style="fill:#FFFFFF;fill-opacity:1" d="M3.75 0L3.75 -26.25L6.85 -26.25L7.65 -22.95Q12.15 -26.25 16.6 -26.25Q21.55 -26.25 23.65 -22.65Q28.65 -26.25 33.05 -26.25Q41.35 -26.25 41.35 -16.25L41.35 0L36.75 0L36.75 -16.5Q36.75 -22.4 31.8 -22.4Q28.1 -22.4 24.85 -19L24.85 0L20.25 0L20.25 -16.45Q20.25 -22.4 15.35 -22.4Q11.45 -22.4 8.35 -19L8.35 0L3.75 0" />
</g>
<g id="PathID_54" transform="matrix(0.253357, 0, 0, 0.253357, 94.85, 89.2)" opacity="1">
</g>
<g id="PathID_55" transform="matrix(0.402465, 0, 0, 0.402465, 19.75, 0)" opacity="1">
<path style="fill:#FFFFFF;fill-opacity:1" d="M174.1 80.25Q174.1 106.4 155.65 124.85Q137.35 143.3 111.25 143.3Q95.1 143.3 81.15 135.65Q67.55 128.2 59.05 115.25Q74.5 125.85 93.85 125.85Q119.8 125.85 138.3 107.4Q156.75 88.9 156.75 62.9Q156.75 44 146.05 28.05Q158.95 36.75 166.45 50.35Q174.1 64.3 174.1 80.25M135.65 93.15Q128.2 106.7 115.25 115.25Q125.85 99.6 125.85 80.25Q125.85 54.3 107.4 36.05Q89.05 17.55 62.9 17.55Q43.9 17.55 28.05 28.05Q36.75 15.15 50.35 7.7Q64.3 0 80.45 0Q106.4 0 124.85 18.5Q143.35 36.95 143.35 62.9Q143.35 79.05 135.65 93.15M115.25 58.85Q99.2 48.25 80.45 48.25Q54.3 48.25 36.05 66.7Q17.55 85.2 17.55 111.25Q17.55 130.4 28.05 146.05Q15.15 137.35 7.7 123.95Q0 109.8 0 93.85Q0 67.75 18.5 49.25Q36.95 30.8 62.9 30.8Q79.05 30.8 93.15 38.45Q106.8 45.95 115.25 58.85M48.45 93.85Q48.45 119.8 66.7 138.3Q85.2 156.65 111.25 156.65Q130.2 156.65 146.05 146.05Q137.55 158.95 123.85 166.45Q109.9 174.1 93.85 174.1Q67.75 174.1 49.25 155.65Q30.9 137.15 30.9 111.25Q30.9 95.1 38.45 81.15Q46.05 67.55 59.05 58.85Q48.45 74.9 48.45 93.85" />
</g>
<g id="PathID_56" transform="matrix(0.402465, 0, 0, 0.402465, 19.75, 0)" opacity="1">
</g>
</svg>
